<mxfile host="app.diagrams.net" modified="2024-05-16T18:01:27.314Z" agent="Mozilla/5.0 (Windows NT 10.0; Win64; x64; rv:125.0) Gecko/20100101 Firefox/125.0" etag="DFlTb8ohMxBq5HyNkeat" version="24.4.3" type="github">
  <diagram name="Page-1" id="c4acf3e9-155e-7222-9cf6-157b1a14988f">
    <mxGraphModel dx="1789" dy="1640" grid="1" gridSize="10" guides="1" tooltips="1" connect="1" arrows="1" fold="1" page="1" pageScale="1" pageWidth="850" pageHeight="1100" background="none" math="0" shadow="0">
      <root>
        <mxCell id="0" />
        <mxCell id="1" parent="0" />
        <mxCell id="Uk2T7mxiOLwB1u4Iwqyp-16" value="" style="rounded=0;orthogonalLoop=1;jettySize=auto;html=1;exitX=0;exitY=0.3333333333333333;exitDx=0;exitDy=0;exitPerimeter=0;endArrow=block;endFill=0;endSize=12;" parent="1" source="Uk2T7mxiOLwB1u4Iwqyp-1" target="Uk2T7mxiOLwB1u4Iwqyp-3" edge="1">
          <mxGeometry relative="1" as="geometry" />
        </mxCell>
        <mxCell id="Uk2T7mxiOLwB1u4Iwqyp-32" style="rounded=0;orthogonalLoop=1;jettySize=auto;html=1;endArrow=none;endFill=0;" parent="1" source="Uk2T7mxiOLwB1u4Iwqyp-1" target="Uk2T7mxiOLwB1u4Iwqyp-10" edge="1">
          <mxGeometry relative="1" as="geometry" />
        </mxCell>
        <mxCell id="Uk2T7mxiOLwB1u4Iwqyp-1" value="Attacker" style="shape=umlActor;verticalLabelPosition=bottom;verticalAlign=top;html=1;outlineConnect=0;" parent="1" vertex="1">
          <mxGeometry x="-440" y="70" width="30" height="60" as="geometry" />
        </mxCell>
        <mxCell id="Uk2T7mxiOLwB1u4Iwqyp-26" style="rounded=0;orthogonalLoop=1;jettySize=auto;html=1;entryX=1;entryY=0.5;entryDx=0;entryDy=0;endArrow=none;endFill=0;" parent="1" source="Uk2T7mxiOLwB1u4Iwqyp-2" target="Uk2T7mxiOLwB1u4Iwqyp-10" edge="1">
          <mxGeometry relative="1" as="geometry" />
        </mxCell>
        <mxCell id="Uk2T7mxiOLwB1u4Iwqyp-33" style="rounded=0;orthogonalLoop=1;jettySize=auto;html=1;entryX=1;entryY=0.5;entryDx=0;entryDy=0;endArrow=none;endFill=0;" parent="1" source="Uk2T7mxiOLwB1u4Iwqyp-2" target="Uk2T7mxiOLwB1u4Iwqyp-27" edge="1">
          <mxGeometry relative="1" as="geometry" />
        </mxCell>
        <mxCell id="Uk2T7mxiOLwB1u4Iwqyp-2" value="&lt;div&gt;War Game Move Validator&lt;/div&gt;" style="shape=umlActor;verticalLabelPosition=bottom;verticalAlign=top;html=1;outlineConnect=0;" parent="1" vertex="1">
          <mxGeometry x="120" y="160" width="30" height="60" as="geometry" />
        </mxCell>
        <mxCell id="Uk2T7mxiOLwB1u4Iwqyp-3" value="Player" style="shape=umlActor;verticalLabelPosition=bottom;verticalAlign=top;html=1;outlineConnect=0;" parent="1" vertex="1">
          <mxGeometry x="-610" y="170" width="30" height="60" as="geometry" />
        </mxCell>
        <mxCell id="Uk2T7mxiOLwB1u4Iwqyp-5" value="" style="swimlane;startSize=0;" parent="1" vertex="1">
          <mxGeometry x="-340" y="-90" width="400" height="428" as="geometry" />
        </mxCell>
        <mxCell id="Uk2T7mxiOLwB1u4Iwqyp-21" style="rounded=0;orthogonalLoop=1;jettySize=auto;html=1;exitX=0;exitY=0;exitDx=0;exitDy=0;entryX=0.5;entryY=1;entryDx=0;entryDy=0;dashed=1;endArrow=none;endFill=0;startArrow=classicThin;startFill=0;" parent="Uk2T7mxiOLwB1u4Iwqyp-5" source="Uk2T7mxiOLwB1u4Iwqyp-10" target="Uk2T7mxiOLwB1u4Iwqyp-19" edge="1">
          <mxGeometry relative="1" as="geometry" />
        </mxCell>
        <mxCell id="Uk2T7mxiOLwB1u4Iwqyp-23" value="Extends" style="edgeLabel;html=1;align=center;verticalAlign=middle;resizable=0;points=[];" parent="Uk2T7mxiOLwB1u4Iwqyp-21" vertex="1" connectable="0">
          <mxGeometry x="0.1214" y="-1" relative="1" as="geometry">
            <mxPoint as="offset" />
          </mxGeometry>
        </mxCell>
        <mxCell id="Uk2T7mxiOLwB1u4Iwqyp-22" style="rounded=0;orthogonalLoop=1;jettySize=auto;html=1;exitX=1;exitY=0;exitDx=0;exitDy=0;endArrow=none;endFill=0;dashed=1;startArrow=classicThin;startFill=0;entryX=0.5;entryY=1;entryDx=0;entryDy=0;" parent="Uk2T7mxiOLwB1u4Iwqyp-5" source="Uk2T7mxiOLwB1u4Iwqyp-10" target="Uk2T7mxiOLwB1u4Iwqyp-20" edge="1">
          <mxGeometry relative="1" as="geometry" />
        </mxCell>
        <mxCell id="Uk2T7mxiOLwB1u4Iwqyp-24" value="Extends" style="edgeLabel;html=1;align=center;verticalAlign=middle;resizable=0;points=[];" parent="Uk2T7mxiOLwB1u4Iwqyp-22" vertex="1" connectable="0">
          <mxGeometry x="-0.0181" y="-2" relative="1" as="geometry">
            <mxPoint x="15" y="-9" as="offset" />
          </mxGeometry>
        </mxCell>
        <mxCell id="Uk2T7mxiOLwB1u4Iwqyp-29" style="edgeStyle=orthogonalEdgeStyle;rounded=0;orthogonalLoop=1;jettySize=auto;html=1;entryX=0.5;entryY=0;entryDx=0;entryDy=0;dashed=1;endArrow=classicThin;endFill=0;" parent="Uk2T7mxiOLwB1u4Iwqyp-5" source="Uk2T7mxiOLwB1u4Iwqyp-10" target="Uk2T7mxiOLwB1u4Iwqyp-27" edge="1">
          <mxGeometry relative="1" as="geometry" />
        </mxCell>
        <mxCell id="Uk2T7mxiOLwB1u4Iwqyp-30" value="&lt;div&gt;Includes&lt;/div&gt;" style="edgeLabel;html=1;align=center;verticalAlign=middle;resizable=0;points=[];" parent="Uk2T7mxiOLwB1u4Iwqyp-29" vertex="1" connectable="0">
          <mxGeometry x="-0.2526" relative="1" as="geometry">
            <mxPoint as="offset" />
          </mxGeometry>
        </mxCell>
        <mxCell id="Uk2T7mxiOLwB1u4Iwqyp-10" value="Atacar Território" style="ellipse;whiteSpace=wrap;html=1;" parent="Uk2T7mxiOLwB1u4Iwqyp-5" vertex="1">
          <mxGeometry x="147.5" y="144" width="105" height="70" as="geometry" />
        </mxCell>
        <mxCell id="Uk2T7mxiOLwB1u4Iwqyp-19" value="Ocupar Território" style="ellipse;whiteSpace=wrap;html=1;" parent="Uk2T7mxiOLwB1u4Iwqyp-5" vertex="1">
          <mxGeometry x="15" y="40" width="105" height="70" as="geometry" />
        </mxCell>
        <mxCell id="Uk2T7mxiOLwB1u4Iwqyp-20" value="Eliminar Jogador" style="ellipse;whiteSpace=wrap;html=1;" parent="Uk2T7mxiOLwB1u4Iwqyp-5" vertex="1">
          <mxGeometry x="280" y="30" width="105" height="70" as="geometry" />
        </mxCell>
        <mxCell id="Uk2T7mxiOLwB1u4Iwqyp-25" value="War Table Game" style="text;html=1;align=center;verticalAlign=middle;resizable=0;points=[];autosize=1;strokeColor=none;fillColor=none;" parent="Uk2T7mxiOLwB1u4Iwqyp-5" vertex="1">
          <mxGeometry x="10" y="10" width="110" height="30" as="geometry" />
        </mxCell>
        <mxCell id="Uk2T7mxiOLwB1u4Iwqyp-27" value="Defender Território" style="ellipse;whiteSpace=wrap;html=1;" parent="Uk2T7mxiOLwB1u4Iwqyp-5" vertex="1">
          <mxGeometry x="147.5" y="260" width="105" height="70" as="geometry" />
        </mxCell>
        <mxCell id="Uk2T7mxiOLwB1u4Iwqyp-17" value="" style="rounded=0;orthogonalLoop=1;jettySize=auto;html=1;exitX=0;exitY=0.3333333333333333;exitDx=0;exitDy=0;exitPerimeter=0;endArrow=block;endFill=0;entryX=1;entryY=0.3333333333333333;entryDx=0;entryDy=0;entryPerimeter=0;endSize=12;" parent="1" source="Uk2T7mxiOLwB1u4Iwqyp-6" target="Uk2T7mxiOLwB1u4Iwqyp-3" edge="1">
          <mxGeometry relative="1" as="geometry">
            <mxPoint x="-400" y="221" as="sourcePoint" />
            <mxPoint x="-570" y="180" as="targetPoint" />
          </mxGeometry>
        </mxCell>
        <mxCell id="Uk2T7mxiOLwB1u4Iwqyp-31" style="rounded=0;orthogonalLoop=1;jettySize=auto;html=1;exitX=1;exitY=0.3333333333333333;exitDx=0;exitDy=0;exitPerimeter=0;endArrow=none;endFill=0;" parent="1" source="Uk2T7mxiOLwB1u4Iwqyp-6" target="Uk2T7mxiOLwB1u4Iwqyp-27" edge="1">
          <mxGeometry relative="1" as="geometry" />
        </mxCell>
        <mxCell id="Uk2T7mxiOLwB1u4Iwqyp-6" value="Defender" style="shape=umlActor;verticalLabelPosition=bottom;verticalAlign=top;html=1;outlineConnect=0;" parent="1" vertex="1">
          <mxGeometry x="-440" y="220" width="30" height="60" as="geometry" />
        </mxCell>
        <mxCell id="bihswKahKPhdLvbX0uiN-8" style="rounded=0;orthogonalLoop=1;jettySize=auto;html=1;entryX=1;entryY=0.5;entryDx=0;entryDy=0;endArrow=none;endFill=0;" parent="1" source="bihswKahKPhdLvbX0uiN-1" target="Uk2T7mxiOLwB1u4Iwqyp-19" edge="1">
          <mxGeometry relative="1" as="geometry" />
        </mxCell>
        <mxCell id="bihswKahKPhdLvbX0uiN-9" style="rounded=0;orthogonalLoop=1;jettySize=auto;html=1;entryX=1;entryY=1;entryDx=0;entryDy=0;endArrow=none;endFill=0;" parent="1" source="bihswKahKPhdLvbX0uiN-1" target="Uk2T7mxiOLwB1u4Iwqyp-20" edge="1">
          <mxGeometry relative="1" as="geometry" />
        </mxCell>
        <mxCell id="bihswKahKPhdLvbX0uiN-1" value="War Game Initializer" style="shape=umlActor;verticalLabelPosition=bottom;verticalAlign=top;html=1;outlineConnect=0;" parent="1" vertex="1">
          <mxGeometry x="120" y="20" width="30" height="60" as="geometry" />
        </mxCell>
        <mxCell id="bihswKahKPhdLvbX0uiN-6" style="rounded=0;orthogonalLoop=1;jettySize=auto;html=1;entryX=1;entryY=1;entryDx=0;entryDy=0;endArrow=none;endFill=0;" parent="1" source="bihswKahKPhdLvbX0uiN-4" target="Uk2T7mxiOLwB1u4Iwqyp-10" edge="1">
          <mxGeometry relative="1" as="geometry" />
        </mxCell>
        <mxCell id="bihswKahKPhdLvbX0uiN-7" style="rounded=0;orthogonalLoop=1;jettySize=auto;html=1;exitX=0;exitY=0.3333333333333333;exitDx=0;exitDy=0;exitPerimeter=0;entryX=1;entryY=1;entryDx=0;entryDy=0;endArrow=none;endFill=0;" parent="1" source="bihswKahKPhdLvbX0uiN-4" target="Uk2T7mxiOLwB1u4Iwqyp-27" edge="1">
          <mxGeometry relative="1" as="geometry" />
        </mxCell>
        <mxCell id="bihswKahKPhdLvbX0uiN-4" value="War Game Combat Handler" style="shape=umlActor;verticalLabelPosition=bottom;verticalAlign=top;html=1;outlineConnect=0;" parent="1" vertex="1">
          <mxGeometry x="120" y="290" width="30" height="60" as="geometry" />
        </mxCell>
      </root>
    </mxGraphModel>
  </diagram>
</mxfile>
